<svg width="87" height="171" viewBox="0 0 87 171" fill="none" xmlns="http://www.w3.org/2000/svg">
<path d="M76.4921 55.9695C77.6055 63.0996 79.4147 80.7517 72.3867 95.4272C66.82 107.265 63.0625 115.433 61.1142 122.009C61.0446 122.009 61.0446 122.009 61.0446 122.009C60.6967 122.009 60.3487 122.078 60.0704 122.078C57.2175 122.355 54.8516 119.517 53.6687 117.787C57.2871 115.502 62.0883 111.21 62.7842 103.873C62.9233 102.557 63.0625 101.38 63.2017 100.342C60.6271 101.588 57.635 100.965 59.7921 99.8575C61.81 98.8192 66.6113 91.343 68.5596 88.1587C68.5596 88.0894 68.6292 88.0202 68.6292 88.0202C71.6213 83.5207 73.4305 78.3288 73.4305 78.3288C75.3788 73.0678 75.7963 66.007 75.6571 59.5691C75.518 57.9078 75.9355 56.7309 76.4921 55.9695ZM46.6408 95.981C45.7362 96.1887 44.9012 95.6349 44.6924 94.8042C44.4837 93.9043 45.0403 93.0736 45.8753 92.8659C46.7799 92.6582 47.6149 93.212 47.8237 94.0427C48.0324 94.8734 47.5453 95.7733 46.6408 95.981ZM86.9993 13.6736C86.9297 6.2666 81.4326 0.244111 74.7526 0.313335C68.0725 0.382559 62.645 6.40505 62.7146 13.8813C62.7842 21.0113 67.8638 29.1105 74.1959 29.6643C73.6392 32.9179 72.7346 41.294 75.2396 50.57C69.1163 52.2314 68.6292 60.1922 68.6292 61.1613C64.5238 87.1895 51.6508 84.1437 51.6508 84.1437L51.7204 84.2129C47.9629 83.1053 43.9966 78.4673 33.6982 81.0286C27.2269 82.6207 24.3044 86.4281 23.0519 88.8509C20.8948 88.2971 7.67392 85.3897 2.6639 90.5123C-1.5807 94.8042 -0.954447 108.303 6.00392 114.395C7.95226 116.056 9.13518 117.579 9.97018 118.825C9.97018 118.825 9.97018 118.825 9.97018 118.894C10.1094 119.102 10.1789 119.24 10.3181 119.379C10.8748 120.209 12.1273 121.871 13.9365 122.909C17.4852 124.64 24.1652 126.44 33.6982 123.048C33.6982 123.048 30.7757 126.37 22.3561 126.716C16.7894 126.993 12.7535 125.47 10.5964 124.432C9.34393 126.647 7.60434 128.862 5.16891 131.839C1.48098 136.339 1.55056 141.254 3.42932 145.684C3.0814 146.515 2.59432 147.276 2.03765 147.83C0.645977 149.076 -1.5807 152.399 3.56849 156.344C8.78726 160.29 9.97019 160.152 12.4056 157.59C12.5448 157.452 12.6144 157.383 12.6839 157.314C14.2148 158.56 15.7456 159.459 16.9981 160.082C17.2765 160.221 17.5548 160.359 17.9027 160.498C17.2069 161.813 16.6502 163.198 16.7198 163.959C16.859 165.62 20.3381 168.805 24.6523 169.982C28.9665 171.158 30.6365 171.297 32.5153 166.936C33.6982 164.236 35.7857 162.228 37.247 161.121C41.8395 159.183 46.2233 155.375 49.6329 148.522C51.1637 145.476 52.0683 142.569 52.625 139.938C54.2254 139.246 57.0087 138.208 59.3746 137.377C59.4442 137.377 59.5137 137.308 59.6529 137.308C60.975 148.522 66.82 149.768 67.0984 149.837L67.2375 149.007C67.1679 149.007 61.6708 147.83 60.4183 137.031C61.1142 136.754 62.1579 136.408 63.48 135.854H63.5496C63.6192 135.785 63.7583 135.785 63.8279 135.716C67.1679 134.331 67.7246 133.293 65.9154 127.063C64.9413 123.671 63.4104 122.563 61.8796 122.217C63.8279 115.71 67.5159 107.611 73.0826 95.9118C80.3888 80.4748 78.2317 61.8535 77.1184 55.1388C77.2576 55.0003 77.3967 54.9311 77.4663 54.8619C77.6751 54.7927 77.9534 54.6542 78.1622 54.5158C78.5797 54.2389 78.7884 53.6851 78.4405 52.4391C77.8142 50.3623 77.2576 50.3623 77.2576 50.3623C76.8401 50.3623 76.4226 50.4316 76.0051 50.5008C73.5001 41.294 74.4742 32.9179 75.0309 29.8028C81.7109 29.5951 87.0689 21.0806 86.9993 13.6736Z" fill="white"/>
</svg>
